<svg xmlns="http://www.w3.org/2000/svg" width="31" height="30" viewBox="0 0 31 30">
    <g fill="none" fill-rule="evenodd">
        <path fill="#4A4A4A" d="M1.558 8.776a14.825 14.825 0 0 0-1.31 6.116c0 8.225 6.668 14.892 14.892 14.892 8.225 0 14.892-6.667 14.892-14.892 0-2.18-.468-4.251-1.31-6.116C26.389 3.603 21.184 0 15.14 0 9.096 0 3.891 3.603 1.558 8.776"/>
        <path fill="#FFF" d="M15.997 23.256h-3.424a.432.432 0 0 1-.433-.433v-7.498h-1.208a.432.432 0 0 1-.433-.432v-2.584c0-.238.192-.431.43-.433l1.211-.008v-1.74c.03-1.25.776-3.6 3.393-3.6h3.815c.24 0 .433.194.433.433v2.825c0 .239-.193.432-.433.432h-2.543c-.104-.008-.222-.011-.284.043-.058.05-.09.172-.09.332v1.243l2.914-.02c.132-.02.25.055.332.151a.432.432 0 0 1 .097.352l-.444 2.643a.43.43 0 0 1-.427.36H16.43v7.498c0 .241-.193.436-.433.436zm-2.992-.865h2.56v-7.498c0-.24.193-.433.432-.433h2.54l.298-1.775-2.835.02h-.003a.43.43 0 0 1-.43-.432v-1.678c0-.546.217-.843.399-.997.382-.32.859-.25.914-.238l2.036-.006v-1.96h-3.383c-2.434 0-2.525 2.632-2.528 2.745v2.15a.44.44 0 0 1-.43.441l-1.21.009v1.721h1.208c.24 0 .432.193.432.433v7.498z"/>
    </g>
</svg>
