<svg xmlns="http://www.w3.org/2000/svg" width="37" height="49" viewBox="0 0 37 49">
    <path fill="#2EFFB5" fill-rule="evenodd" d="M10.817 18.514c0 4.496 3.49 7.785 7.786 7.785 4.295 0 7.717-3.289 7.717-7.785 0-4.43-3.422-7.92-7.717-7.92-4.296 0-7.786 3.49-7.786 7.92zm23.758 28.723c0 .538-.604 1.142-1.477 1.142H3.704c-.874 0-1.41-.604-1.41-1.142v-7.382c0-.603.536-1.208 1.41-1.208h29.394c.873 0 1.477.605 1.477 1.208v7.382zM.549 18.514C.549 8.85 8.669.864 18.603.864c9.864 0 17.985 7.986 17.985 17.65 0 9.732-8.12 17.516-17.985 17.516C8.67 36.03.549 28.246.549 18.514z"/>
</svg>
