<svg xmlns="http://www.w3.org/2000/svg" width="31" height="30" viewBox="0 0 31 30">
    <g fill="none" fill-rule="evenodd">
        <path fill="#4A4A4A" d="M1.482 8.906a14.825 14.825 0 0 0-1.31 6.116c0 8.224 6.668 14.892 14.892 14.892s14.892-6.668 14.892-14.892c0-2.18-.468-4.251-1.31-6.116C26.313 3.732 21.107.13 15.064.13 9.02.13 3.815 3.732 1.482 8.906"/>
        <g fill="#FFF">
            <path d="M18.933 22.085h-8.28c-1.703 0-3.09-1.396-3.09-3.112v-8.34c0-1.715 1.387-3.111 3.09-3.111h8.28c1.704 0 3.09 1.396 3.09 3.112v8.34c0 1.715-1.386 3.11-3.09 3.11zm-8.28-13.751a2.294 2.294 0 0 0-2.283 2.3v8.34c0 1.268 1.025 2.3 2.283 2.3h8.28a2.294 2.294 0 0 0 2.284-2.3v-8.34c0-1.27-1.025-2.3-2.284-2.3h-8.28z"/>
            <path d="M14.793 18.447c-1.994 0-3.617-1.635-3.617-3.644 0-2.009 1.623-3.643 3.617-3.643 1.995 0 3.618 1.634 3.618 3.643 0 2.01-1.623 3.644-3.618 3.644zm0-6.477c-1.55 0-2.812 1.27-2.812 2.833 0 1.563 1.26 2.833 2.812 2.833 1.552 0 2.812-1.27 2.812-2.833 0-1.562-1.262-2.833-2.812-2.833zM20.32 10.407a.881.881 0 0 1-.879.885.88.88 0 0 1-.877-.885.88.88 0 0 1 .877-.885c.486 0 .878.396.878.885"/>
        </g>
    </g>
</svg>
