<svg xmlns="http://www.w3.org/2000/svg" width="31" height="30" viewBox="0 0 31 30">
    <g fill="none" fill-rule="evenodd">
        <path fill="#4A4A4A" d="M1.382 8.827A14.555 14.555 0 0 0 .07 14.89c0 8.152 6.684 14.761 14.929 14.761 8.245 0 14.929-6.609 14.929-14.76 0-2.162-.47-4.215-1.313-6.064C26.274 3.7 21.057.13 14.998.13c-6.059 0-11.277 3.57-13.616 8.698"/>
        <path fill="#FFF" d="M21.603 9.827H8.393a.896.896 0 0 0-.895.894v8.338a.898.898 0 0 0 .895.895h13.21a.896.896 0 0 0 .895-.895V10.72a.895.895 0 0 0-.895-.894zm-4.963 4.931c-1.654 1.44-3.02.206-3.077.152l-4.79-4.431h12.473c-.949.909-3.154 3.014-4.606 4.28zm-4.13.067l-4.36 4.154v-8.186l4.36 4.032zm.48.443l.127.119c.012.01.783.719 1.897.719.606 0 1.313-.21 2.055-.856l.132-.117 3.973 4.167H8.759l4.23-4.032zm4.697-.568a190.005 190.005 0 0 0 4.159-3.895v8.254l-.002.002-4.157-4.361z"/>
    </g>
</svg>
