<svg xmlns="http://www.w3.org/2000/svg" width="31" height="30" viewBox="0 0 31 30">
    <g fill="none" fill-rule="evenodd">
        <path fill="#4A4A4A" d="M1.56 8.906a14.825 14.825 0 0 0-1.31 6.116c0 8.224 6.668 14.892 14.892 14.892s14.892-6.668 14.892-14.892c0-2.18-.468-4.251-1.31-6.116C26.39 3.732 21.186.13 15.142.13 9.098.13 3.893 3.732 1.56 8.906"/>
        <path fill="#FFF" d="M13.333 21.62c-3.01 0-5.057-1.478-5.158-1.552a.43.43 0 1 1 .292-.774c1.62.141 2.87-.297 3.632-.693-1.367-.457-2.08-1.602-2.287-2.263a.43.43 0 0 1 .268-.533c-1.148-.86-1.444-2.174-1.412-2.917a.433.433 0 0 1 .287-.386.448.448 0 0 1 .263-.007c-1.175-1.822-.086-3.697-.071-3.72a.426.426 0 0 1 .69-.063c2.178 2.472 4.756 3.02 5.809 3.142a4.15 4.15 0 0 1 .58-2.185 3.289 3.289 0 0 1 2.102-1.55c1.96-.462 3.169.541 3.538.915.2-.062.948-.388 1.622-.759a.43.43 0 1 1 .633.428c-.04.324-.205.653-.413.95.176-.064.28-.11.282-.112a.432.432 0 0 1 .496.097c.125.136.15.338.061.5-.376.68-1.134 1.312-1.511 1.603.141 1.203-.404 3.094-.88 4.143a9.728 9.728 0 0 1-.238.49c-1.187 2.327-3.335 4.064-6.049 4.89a9.174 9.174 0 0 1-2.536.355zm-3.229-1.505c1.154.464 2.923.899 4.99.458.177-.037.356-.082.536-.133 2.48-.754 4.446-2.337 5.526-4.459.076-.147.15-.297.22-.45.539-1.193.98-3.036.775-3.876a.432.432 0 0 1 .173-.455c.005-.003.238-.167.527-.414a6.36 6.36 0 0 1-.396.066.43.43 0 0 1-.328-.759c.136-.112.3-.262.462-.43-.79.311-1.012.21-1.115.162a.428.428 0 0 1-.156-.12c-.039-.046-.996-1.176-2.792-.748-.673.159-1.198.548-1.563 1.155-.488.814-.511 1.717-.411 2.095a.431.431 0 0 1-.408.54c-.14.005-3.518.02-6.49-2.974-.221.732-.326 2.056 1.167 3.173.152.114.21.313.146.492a.426.426 0 0 1-.43.28 5.815 5.815 0 0 1-.932-.128c.166.69.67 1.714 2.2 2.068a.43.43 0 0 1 .048.823c-.021.007-.392.136-.936.172.345.532 1.046 1.246 2.332 1.284a.428.428 0 0 1 .274.747c-.061.058-1.298 1.15-3.419 1.43z"/>
    </g>
</svg>
